<svg width="54" height="54" viewBox="0 0 54 54" fill="none" xmlns="http://www.w3.org/2000/svg">
<g clip-path="url(#clip0_908_39555)">
<path d="M47.9581 28.4905C51.8371 21.1 48.8986 12.5698 41.1131 11.1799C37.5776 10.5487 34.6458 10.77 29.601 14.2595C26.119 9.26646 23.392 8.04944 19.9517 7.4486C12.8717 6.21206 6.6093 12.8551 7.57916 21.3706C8.85054 32.5334 20.2011 42.5753 23.9935 46.061C28.7563 44.0678 42.7091 38.4912 47.9581 28.4905Z" stroke="#F94233" stroke-width="3.59375"/>
</g>
<path d="M47.8624 28.4749C51.7414 21.0844 48.8029 12.5542 41.0174 11.1643C37.4819 10.5331 34.5501 10.7543 29.5053 14.2438C26.0232 9.25083 23.2963 8.03382 19.856 7.43297C12.776 6.19644 6.5136 12.8395 7.48346 21.355C8.75483 32.5178 20.1054 42.5597 23.8978 46.0454C28.6606 44.0521 42.6134 38.4756 47.8624 28.4749Z" fill="#F94233"/>
<defs>
<clipPath id="clip0_908_39555">
<rect width="46" height="46" fill="white" transform="translate(8.69922 0.355469) rotate(10)"/>
</clipPath>
</defs>
</svg>
