<svg width="36" height="34" viewBox="0 0 36 34" fill="none" xmlns="http://www.w3.org/2000/svg">
<path opacity="0.8" fill-rule="evenodd" clip-rule="evenodd" d="M25.1638 0.734422C23.6905 0.731282 22.1283 0.879189 20.4351 1.5935C19.4905 1.99196 18.5758 2.53654 17.6528 3.23866C16.7361 2.53709 15.8256 1.9938 14.887 1.59599C13.2019 0.881759 11.6493 0.732072 10.2045 0.734419C2.69051 0.746629 -1.56958 8.50118 0.53839 15.6187C1.88618 20.1694 5.18813 23.8784 8.24646 26.571C11.1327 29.1121 14.1015 31.0012 15.6923 32.0134C15.8118 32.0895 15.9236 32.1606 16.0269 32.2266L17.6465 33.2618L19.2638 32.2232C19.3559 32.164 19.4545 32.1009 19.559 32.034C21.1427 31.0204 24.1092 29.1217 27.0121 26.5623C30.0651 23.8705 33.3585 20.1845 34.796 15.6785C35.9135 12.1756 35.5591 8.51957 33.8511 5.64729C32.1086 2.71685 29.0185 0.742639 25.1638 0.734422Z" fill="url(#paint0_linear_165_25195)"/>
<defs>
<linearGradient id="paint0_linear_165_25195" x1="-2.36055" y1="-4.85099" x2="35.3374" y2="1.6913" gradientUnits="userSpaceOnUse">
<stop stop-color="#FFAA00"/>
<stop offset="1" stop-color="#F94233"/>
</linearGradient>
</defs>
</svg>
