<svg width="36" height="34" viewBox="0 0 36 34" fill="none" xmlns="http://www.w3.org/2000/svg">
<path opacity="0.8" fill-rule="evenodd" clip-rule="evenodd" d="M27.1545 3.27985C25.7042 3.02093 24.1401 2.89532 22.3485 3.30474C21.3491 3.53313 20.3537 3.9106 19.3228 4.44177C18.5419 3.59168 17.7395 2.89854 16.8843 2.3438C15.3488 1.34779 13.8457 0.930762 12.4225 0.682193C5.02055 -0.610573 -0.521375 6.28641 0.318631 13.6618C0.855713 18.3775 3.46344 22.6035 6.00774 25.7863C8.40885 28.7899 11.0046 31.1659 12.3954 32.4389C12.4999 32.5346 12.5976 32.624 12.6879 32.707L14.1031 34.0077L15.8762 33.2657C15.9772 33.2234 16.0852 33.1784 16.1998 33.1307C17.9354 32.4075 21.1866 31.0528 24.4898 29.0363C27.9638 26.9156 31.8473 23.8574 34.0454 19.6695C35.7542 16.4139 36.04 12.7518 34.8568 9.62661C33.6496 6.43811 30.9493 3.9573 27.1545 3.27985Z" fill="#F2F7F7"/>
</svg>
